# xmcd CD database file
#
# Track frame offsets:
#	150
#	19147
#	32893
#	47003
#	67531
#	84743
#	97524
#	113889
#	129095
#	144449
#	158650
#	172591
#	187692
#	205727
#	223488
#	244508
#
# Disc length: 3509 seconds
#
# Revision: 1
# Processed by: cddbd v1.4PL0 Copyright (c) Steve Scherf et al.
# Submitted via: CDex 1.50Beta7
#
DISCID=be0db310
DTITLE=Ben Webster - Bounce Blues
DYEAR=1953
DGENRE=Jazz
TTITLE0=Jive at six
TTITLE1=Tenderly
TTITLE2=Don't get around much any more
TTITLE3=Bounce blues
TTITLE4=That's all
TTITLE5=Pennies from heaven
TTITLE6=Danny Boy
TTITLE7=Cotton tail
TTITLE8=My funny Valentine
TTITLE9=You're mine, you!
TTITLE10=Sophisticated lady
TTITLE11=Love's away
TTITLE12=Almost like being in love
TTITLE13=Chelsea Bridge
TTITLE14=Willow weep for me
TTITLE15=Until tonight
EXTD=YEAR: 1953
EXTT0=
EXTT1=
EXTT2=
EXTT3=
EXTT4=
EXTT5=
EXTT6=
EXTT7=
EXTT8=
EXTT9=
EXTT10=
EXTT11=
EXTT12=
EXTT13=
EXTT14=
EXTT15=
PLAYORDER=
